# WaveFront *.obj file (generated by Cinema 4D)

mtllib ./cross.mtl

v -0.176777 0.176777 0.000000
v 0.176777 -0.176777 0.000000
v -0.184541 0.163328 0.000000
v -0.184541 0.147799 0.000000
v -0.176777 0.134350 0.000000
v 0.134350 -0.176777 0.000000
v 0.147799 -0.184541 0.000000
v 0.163328 -0.184541 0.000000
v -0.181435 0.166435 -0.010607
v -0.179160 0.153180 -0.018371
v -0.170563 0.140563 -0.021213
v 0.140563 -0.170563 -0.021213
v 0.153180 -0.179160 -0.018371
v 0.166435 -0.181435 -0.010607
v -0.173935 0.173935 -0.015000
v -0.166170 0.166170 -0.025981
v -0.155563 0.155563 -0.030000
v 0.155563 -0.155563 -0.030000
v 0.166170 -0.166170 -0.025981
v 0.173935 -0.173935 -0.015000
v -0.166435 0.181435 -0.010607
v -0.153180 0.179160 -0.018371
v -0.140563 0.170563 -0.021213
v 0.170563 -0.140563 -0.021213
v 0.179160 -0.153180 -0.018371
v 0.181435 -0.166435 -0.010607
v -0.163328 0.184541 -0.000000
v -0.147799 0.184541 -0.000000
v -0.134350 0.176777 -0.000000
v 0.176777 -0.134350 -0.000000
v 0.184541 -0.147799 -0.000000
v 0.184541 -0.163328 -0.000000
v -0.166435 0.181435 0.010607
v -0.153180 0.179160 0.018371
v -0.140563 0.170563 0.021213
v 0.170563 -0.140563 0.021213
v 0.179160 -0.153180 0.018371
v 0.181435 -0.166435 0.010607
v -0.173935 0.173935 0.015000
v -0.166170 0.166170 0.025981
v -0.155563 0.155563 0.030000
v 0.155563 -0.155563 0.030000
v 0.166170 -0.166170 0.025981
v 0.173935 -0.173935 0.015000
v -0.181435 0.166435 0.010607
v -0.179160 0.153180 0.018371
v -0.170563 0.140563 0.021213
v 0.140563 -0.170563 0.021213
v 0.153180 -0.179160 0.018371
v 0.166435 -0.181435 0.010607
v -0.176777 -0.176777 0.000000
v 0.176777 0.176777 0.000000
v -0.163328 -0.184541 0.000000
v -0.147799 -0.184541 0.000000
v -0.134350 -0.176777 0.000000
v 0.176777 0.134350 0.000000
v 0.184541 0.147799 0.000000
v 0.184541 0.163328 0.000000
v -0.166435 -0.181435 -0.010607
v -0.153180 -0.179160 -0.018371
v -0.140563 -0.170563 -0.021213
v 0.170563 0.140563 -0.021213
v 0.179160 0.153180 -0.018371
v 0.181435 0.166435 -0.010607
v -0.173935 -0.173935 -0.015000
v -0.166170 -0.166170 -0.025981
v -0.155563 -0.155563 -0.030000
v 0.155563 0.155563 -0.030000
v 0.166170 0.166170 -0.025981
v 0.173935 0.173935 -0.015000
v -0.181435 -0.166435 -0.010607
v -0.179160 -0.153180 -0.018371
v -0.170563 -0.140563 -0.021213
v 0.140563 0.170563 -0.021213
v 0.153180 0.179160 -0.018371
v 0.166435 0.181435 -0.010607
v -0.184541 -0.163328 -0.000000
v -0.184541 -0.147799 -0.000000
v -0.176777 -0.134350 -0.000000
v 0.134350 0.176777 -0.000000
v 0.147799 0.184541 -0.000000
v 0.163328 0.184541 -0.000000
v -0.181435 -0.166435 0.010607
v -0.179160 -0.153180 0.018371
v -0.170563 -0.140563 0.021213
v 0.140563 0.170563 0.021213
v 0.153180 0.179160 0.018371
v 0.166435 0.181435 0.010607
v -0.173935 -0.173935 0.015000
v -0.166170 -0.166170 0.025981
v -0.155563 -0.155563 0.030000
v 0.155563 0.155563 0.030000
v 0.166170 0.166170 0.025981
v 0.173935 0.173935 0.015000
v -0.166435 -0.181435 0.010607
v -0.153180 -0.179160 0.018371
v -0.140563 -0.170563 0.021213
v 0.170563 0.140563 0.021213
v 0.179160 0.153180 0.018371
v 0.181435 0.166435 0.010607
# 100 vertices

vn -0.707107 0.707107 0.000000
vn -0.964686 0.263402 0.000000
vn -0.861986 0.366102 -0.350642
vn -0.967064 -0.254534 0.000000
vn -0.788165 -0.075636 -0.610799
vn -0.793551 -0.608504 0.000000
vn -0.588225 -0.403178 -0.701028
vn -0.608504 -0.793551 0.000000
vn -0.403178 -0.588225 -0.701028
vn -0.254535 -0.967064 0.000000
vn -0.075636 -0.788165 -0.610799
vn 0.263402 -0.964686 -0.000000
vn 0.366102 -0.861985 -0.350642
vn 0.707107 -0.707107 -0.000000
vn -0.614044 0.614044 -0.495883
vn -0.356265 0.356265 -0.863800
vn -0.092523 0.092523 -0.991402
vn 0.092523 -0.092523 -0.991402
vn 0.356265 -0.356265 -0.863800
vn 0.614044 -0.614044 -0.495883
vn -0.366102 0.861985 -0.350642
vn 0.075636 0.788165 -0.610799
vn 0.403178 0.588225 -0.701028
vn 0.588225 0.403178 -0.701028
vn 0.788165 0.075636 -0.610799
vn 0.861985 -0.366102 -0.350642
vn -0.263402 0.964686 -0.000000
vn 0.254535 0.967064 -0.000000
vn 0.608504 0.793551 0.000000
vn 0.793551 0.608504 -0.000000
vn 0.967064 0.254534 0.000000
vn 0.964686 -0.263402 0.000000
vn -0.366102 0.861986 0.350642
vn 0.075636 0.788165 0.610799
vn 0.403178 0.588225 0.701028
vn 0.588225 0.403178 0.701028
vn 0.788165 0.075636 0.610799
vn 0.861985 -0.366102 0.350642
vn -0.614044 0.614044 0.495883
vn -0.356265 0.356265 0.863800
vn -0.092523 0.092523 0.991402
vn 0.092523 -0.092523 0.991402
vn 0.356265 -0.356265 0.863800
vn 0.614044 -0.614044 0.495883
vn -0.861985 0.366102 0.350642
vn -0.788165 -0.075636 0.610799
vn -0.588225 -0.403178 0.701028
vn -0.403178 -0.588225 0.701028
vn -0.075636 -0.788165 0.610799
vn 0.366102 -0.861985 0.350642
vn -0.707107 -0.707107 0.000000
vn -0.263402 -0.964686 0.000000
vn -0.366102 -0.861986 -0.350642
vn 0.254534 -0.967064 0.000000
vn 0.075636 -0.788165 -0.610799
vn 0.608504 -0.793551 0.000000
vn 0.403178 -0.588225 -0.701028
vn 0.793551 -0.608504 0.000000
vn 0.588225 -0.403178 -0.701028
vn 0.967064 -0.254535 0.000000
vn 0.788165 -0.075636 -0.610799
vn 0.964686 0.263402 -0.000000
vn 0.861985 0.366102 -0.350642
vn 0.707107 0.707107 -0.000000
vn -0.614044 -0.614044 -0.495883
vn -0.356265 -0.356265 -0.863800
vn -0.092523 -0.092523 -0.991402
vn 0.092523 0.092523 -0.991402
vn 0.356265 0.356265 -0.863800
vn 0.614044 0.614044 -0.495883
vn -0.861985 -0.366102 -0.350642
vn -0.788165 0.075636 -0.610799
vn -0.588225 0.403178 -0.701028
vn -0.403178 0.588225 -0.701028
vn -0.075636 0.788165 -0.610799
vn 0.366102 0.861985 -0.350642
vn -0.964686 -0.263402 -0.000000
vn -0.967064 0.254535 -0.000000
vn -0.793551 0.608504 0.000000
vn -0.608504 0.793551 -0.000000
vn -0.254534 0.967064 0.000000
vn 0.263402 0.964686 0.000000
vn -0.861986 -0.366102 0.350642
vn -0.788165 0.075636 0.610799
vn -0.588225 0.403178 0.701028
vn -0.403178 0.588225 0.701028
vn -0.075636 0.788165 0.610799
vn 0.366102 0.861985 0.350642
vn -0.614044 -0.614044 0.495883
vn -0.356265 -0.356265 0.863800
vn -0.092523 -0.092523 0.991402
vn 0.092523 0.092523 0.991402
vn 0.356265 0.356265 0.863800
vn 0.614044 0.614044 0.495883
vn -0.366102 -0.861985 0.350642
vn 0.075636 -0.788165 0.610799
vn 0.403178 -0.588225 0.701028
vn 0.588225 -0.403178 0.701028
vn 0.788165 -0.075636 0.610799
vn 0.861985 0.366102 0.350642
# 100 normals

vt 0.062500 0.000000 0.000000
vt 0.000000 0.029126 0.000000
vt 0.125000 0.029126 0.000000
vt 0.000000 1.000000 0.000000
vt 0.000000 0.058252 0.000000
vt 0.125000 0.058252 0.000000
vt 0.000000 0.087377 0.000000
vt 0.125000 0.087377 0.000000
vt 0.000000 0.912623 0.000000
vt 0.125000 0.912623 0.000000
vt 0.000000 0.941748 0.000000
vt 0.125000 0.941748 0.000000
vt 0.000000 0.970874 0.000000
vt 0.125000 0.970874 0.000000
vt 0.062500 1.000000 0.000000
vt 0.187500 0.000000 0.000000
vt 0.250000 0.029126 0.000000
vt 0.250000 0.058252 0.000000
vt 0.250000 0.087377 0.000000
vt 0.250000 0.912623 0.000000
vt 0.250000 0.941748 0.000000
vt 0.250000 0.970874 0.000000
vt 0.187500 1.000000 0.000000
vt 0.312500 0.000000 0.000000
vt 0.375000 0.029126 0.000000
vt 0.375000 0.058252 0.000000
vt 0.375000 0.087377 0.000000
vt 0.375000 0.912623 0.000000
vt 0.375000 0.941748 0.000000
vt 0.375000 0.970874 0.000000
vt 0.312500 1.000000 0.000000
vt 0.437500 0.000000 0.000000
vt 0.500000 0.029126 0.000000
vt 0.500000 0.058252 0.000000
vt 0.500000 0.087377 0.000000
vt 0.500000 0.912623 0.000000
vt 0.500000 0.941748 0.000000
vt 0.500000 0.970874 0.000000
vt 0.437500 1.000000 0.000000
vt 0.562500 0.000000 0.000000
vt 0.625000 0.029126 0.000000
vt 0.625000 0.058252 0.000000
vt 0.625000 0.087377 0.000000
vt 0.625000 0.912623 0.000000
vt 0.625000 0.941748 0.000000
vt 0.625000 0.970874 0.000000
vt 0.562500 1.000000 0.000000
vt 0.687500 0.000000 0.000000
vt 0.750000 0.029126 0.000000
vt 0.750000 0.058252 0.000000
vt 0.750000 0.087377 0.000000
vt 0.750000 0.912623 0.000000
vt 0.750000 0.941748 0.000000
vt 0.750000 0.970874 0.000000
vt 0.687500 1.000000 0.000000
vt 0.812500 0.000000 0.000000
vt 0.875000 0.029126 0.000000
vt 0.875000 0.058252 0.000000
vt 0.875000 0.087377 0.000000
vt 0.875000 0.912623 0.000000
vt 0.875000 0.941748 0.000000
vt 0.875000 0.970874 0.000000
vt 0.812500 1.000000 0.000000
vt 0.937500 0.000000 0.000000
vt 1.000000 0.029126 0.000000
vt 1.000000 0.058252 0.000000
vt 1.000000 0.087377 0.000000
vt 1.000000 0.912623 0.000000
vt 1.000000 0.941748 0.000000
vt 1.000000 0.970874 0.000000
vt 0.937500 1.000000 0.000000
# 71 texture coordinates

o Cylinder.1
usemtl default
f 9/3/3 3/2/2 1/1/1
f 9/3/3 10/6/5 4/5/4 3/2/2
f 10/6/5 11/8/7 5/7/6 4/5/4
f 11/8/7 12/10/9 6/9/8 5/7/6
f 12/10/9 13/12/11 7/11/10 6/9/8
f 13/12/11 14/14/13 8/13/12 7/11/10
f 14/14/13 2/15/14 8/13/12
f 15/17/15 9/3/3 1/16/1
f 15/17/15 16/18/16 10/6/5 9/3/3
f 16/18/16 17/19/17 11/8/7 10/6/5
f 17/19/17 18/20/18 12/10/9 11/8/7
f 18/20/18 19/21/19 13/12/11 12/10/9
f 19/21/19 20/22/20 14/14/13 13/12/11
f 20/22/20 2/23/14 14/14/13
f 21/25/21 15/17/15 1/24/1
f 21/25/21 22/26/22 16/18/16 15/17/15
f 22/26/22 23/27/23 17/19/17 16/18/16
f 23/27/23 24/28/24 18/20/18 17/19/17
f 24/28/24 25/29/25 19/21/19 18/20/18
f 25/29/25 26/30/26 20/22/20 19/21/19
f 26/30/26 2/31/14 20/22/20
f 27/33/27 21/25/21 1/32/1
f 27/33/27 28/34/28 22/26/22 21/25/21
f 28/34/28 29/35/29 23/27/23 22/26/22
f 29/35/29 30/36/30 24/28/24 23/27/23
f 30/36/30 31/37/31 25/29/25 24/28/24
f 31/37/31 32/38/32 26/30/26 25/29/25
f 32/38/32 2/39/14 26/30/26
f 33/41/33 27/33/27 1/40/1
f 33/41/33 34/42/34 28/34/28 27/33/27
f 34/42/34 35/43/35 29/35/29 28/34/28
f 35/43/35 36/44/36 30/36/30 29/35/29
f 36/44/36 37/45/37 31/37/31 30/36/30
f 37/45/37 38/46/38 32/38/32 31/37/31
f 38/46/38 2/47/14 32/38/32
f 39/49/39 33/41/33 1/48/1
f 39/49/39 40/50/40 34/42/34 33/41/33
f 40/50/40 41/51/41 35/43/35 34/42/34
f 41/51/41 42/52/42 36/44/36 35/43/35
f 42/52/42 43/53/43 37/45/37 36/44/36
f 43/53/43 44/54/44 38/46/38 37/45/37
f 44/54/44 2/55/14 38/46/38
f 45/57/45 39/49/39 1/56/1
f 45/57/45 46/58/46 40/50/40 39/49/39
f 46/58/46 47/59/47 41/51/41 40/50/40
f 47/59/47 48/60/48 42/52/42 41/51/41
f 48/60/48 49/61/49 43/53/43 42/52/42
f 49/61/49 50/62/50 44/54/44 43/53/43
f 50/62/50 2/63/14 44/54/44
f 3/65/2 45/57/45 1/64/1
f 3/65/2 4/66/4 46/58/46 45/57/45
f 4/66/4 5/67/6 47/59/47 46/58/46
f 5/67/6 6/68/8 48/60/48 47/59/47
f 6/68/8 7/69/10 49/61/49 48/60/48
f 7/69/10 8/70/12 50/62/50 49/61/49
f 8/70/12 2/71/14 50/62/50
f 59/3/53 53/2/52 51/1/51
f 59/3/53 60/6/55 54/5/54 53/2/52
f 60/6/55 61/8/57 55/7/56 54/5/54
f 61/8/57 62/10/59 56/9/58 55/7/56
f 62/10/59 63/12/61 57/11/60 56/9/58
f 63/12/61 64/14/63 58/13/62 57/11/60
f 64/14/63 52/15/64 58/13/62
f 65/17/65 59/3/53 51/16/51
f 65/17/65 66/18/66 60/6/55 59/3/53
f 66/18/66 67/19/67 61/8/57 60/6/55
f 67/19/67 68/20/68 62/10/59 61/8/57
f 68/20/68 69/21/69 63/12/61 62/10/59
f 69/21/69 70/22/70 64/14/63 63/12/61
f 70/22/70 52/23/64 64/14/63
f 71/25/71 65/17/65 51/24/51
f 71/25/71 72/26/72 66/18/66 65/17/65
f 72/26/72 73/27/73 67/19/67 66/18/66
f 73/27/73 74/28/74 68/20/68 67/19/67
f 74/28/74 75/29/75 69/21/69 68/20/68
f 75/29/75 76/30/76 70/22/70 69/21/69
f 76/30/76 52/31/64 70/22/70
f 77/33/77 71/25/71 51/32/51
f 77/33/77 78/34/78 72/26/72 71/25/71
f 78/34/78 79/35/79 73/27/73 72/26/72
f 79/35/79 80/36/80 74/28/74 73/27/73
f 80/36/80 81/37/81 75/29/75 74/28/74
f 81/37/81 82/38/82 76/30/76 75/29/75
f 82/38/82 52/39/64 76/30/76
f 83/41/83 77/33/77 51/40/51
f 83/41/83 84/42/84 78/34/78 77/33/77
f 84/42/84 85/43/85 79/35/79 78/34/78
f 85/43/85 86/44/86 80/36/80 79/35/79
f 86/44/86 87/45/87 81/37/81 80/36/80
f 87/45/87 88/46/88 82/38/82 81/37/81
f 88/46/88 52/47/64 82/38/82
f 89/49/89 83/41/83 51/48/51
f 89/49/89 90/50/90 84/42/84 83/41/83
f 90/50/90 91/51/91 85/43/85 84/42/84
f 91/51/91 92/52/92 86/44/86 85/43/85
f 92/52/92 93/53/93 87/45/87 86/44/86
f 93/53/93 94/54/94 88/46/88 87/45/87
f 94/54/94 52/55/64 88/46/88
f 95/57/95 89/49/89 51/56/51
f 95/57/95 96/58/96 90/50/90 89/49/89
f 96/58/96 97/59/97 91/51/91 90/50/90
f 97/59/97 98/60/98 92/52/92 91/51/91
f 98/60/98 99/61/99 93/53/93 92/52/92
f 99/61/99 100/62/100 94/54/94 93/53/93
f 100/62/100 52/63/64 94/54/94
f 53/65/52 95/57/95 51/64/51
f 53/65/52 54/66/54 96/58/96 95/57/95
f 54/66/54 55/67/56 97/59/97 96/58/96
f 55/67/56 56/68/58 98/60/98 97/59/97
f 56/68/58 57/69/60 99/61/99 98/60/98
f 57/69/60 58/70/62 100/62/100 99/61/99
f 58/70/62 52/71/64 100/62/100

