# WaveFront *.obj file (generated by Cinema 4D)

mtllib ./line.mtl

v -0.250000 -0.000000 0.000000
v 0.250000 0.000000 0.000000
v -0.245981 -0.015000 0.000000
v -0.235000 -0.025981 0.000000
v -0.220000 -0.030000 0.000000
v 0.220000 -0.030000 0.000000
v 0.235000 -0.025981 0.000000
v 0.245981 -0.015000 0.000000
v -0.245981 -0.013858 -0.005740
v -0.235000 -0.024003 -0.009942
v -0.220000 -0.027716 -0.011481
v 0.220000 -0.027716 -0.011481
v 0.235000 -0.024003 -0.009942
v 0.245981 -0.013858 -0.005740
v -0.245981 -0.010607 -0.010607
v -0.235000 -0.018371 -0.018371
v -0.220000 -0.021213 -0.021213
v 0.220000 -0.021213 -0.021213
v 0.235000 -0.018371 -0.018371
v 0.245981 -0.010607 -0.010607
v -0.245981 -0.005740 -0.013858
v -0.235000 -0.009942 -0.024003
v -0.220000 -0.011481 -0.027716
v 0.220000 -0.011481 -0.027716
v 0.235000 -0.009942 -0.024003
v 0.245981 -0.005740 -0.013858
v -0.245981 -0.000000 -0.015000
v -0.235000 -0.000000 -0.025981
v -0.220000 -0.000000 -0.030000
v 0.220000 0.000000 -0.030000
v 0.235000 0.000000 -0.025981
v 0.245981 0.000000 -0.015000
v -0.245981 0.005740 -0.013858
v -0.235000 0.009942 -0.024003
v -0.220000 0.011481 -0.027716
v 0.220000 0.011481 -0.027716
v 0.235000 0.009942 -0.024003
v 0.245981 0.005740 -0.013858
v -0.245981 0.010607 -0.010607
v -0.235000 0.018371 -0.018371
v -0.220000 0.021213 -0.021213
v 0.220000 0.021213 -0.021213
v 0.235000 0.018371 -0.018371
v 0.245981 0.010607 -0.010607
v -0.245981 0.013858 -0.005740
v -0.235000 0.024003 -0.009942
v -0.220000 0.027716 -0.011481
v 0.220000 0.027716 -0.011481
v 0.235000 0.024003 -0.009942
v 0.245981 0.013858 -0.005740
v -0.245981 0.015000 -0.000000
v -0.235000 0.025981 -0.000000
v -0.220000 0.030000 -0.000000
v 0.220000 0.030000 -0.000000
v 0.235000 0.025981 -0.000000
v 0.245981 0.015000 -0.000000
v -0.245981 0.013858 0.005740
v -0.235000 0.024003 0.009942
v -0.220000 0.027716 0.011481
v 0.220000 0.027716 0.011481
v 0.235000 0.024003 0.009942
v 0.245981 0.013858 0.005740
v -0.245981 0.010607 0.010607
v -0.235000 0.018371 0.018371
v -0.220000 0.021213 0.021213
v 0.220000 0.021213 0.021213
v 0.235000 0.018371 0.018371
v 0.245981 0.010607 0.010607
v -0.245981 0.005740 0.013858
v -0.235000 0.009942 0.024003
v -0.220000 0.011481 0.027716
v 0.220000 0.011481 0.027716
v 0.235000 0.009942 0.024003
v 0.245981 0.005740 0.013858
v -0.245981 -0.000000 0.015000
v -0.235000 -0.000000 0.025981
v -0.220000 -0.000000 0.030000
v 0.220000 0.000000 0.030000
v 0.235000 0.000000 0.025981
v 0.245981 0.000000 0.015000
v -0.245981 -0.005740 0.013858
v -0.235000 -0.009942 0.024003
v -0.220000 -0.011481 0.027716
v 0.220000 -0.011481 0.027716
v 0.235000 -0.009942 0.024003
v 0.245981 -0.005740 0.013858
v -0.245981 -0.010607 0.010607
v -0.235000 -0.018371 0.018371
v -0.220000 -0.021213 0.021213
v 0.220000 -0.021213 0.021213
v 0.235000 -0.018371 0.018371
v 0.245981 -0.010607 0.010607
v -0.245981 -0.013858 0.005740
v -0.235000 -0.024003 0.009942
v -0.220000 -0.027716 0.011481
v 0.220000 -0.027716 0.011481
v 0.235000 -0.024003 0.009942
v 0.245981 -0.013858 0.005740
# 98 vertices

vn -1.000000 -0.000000 -0.000000
vn -0.866592 -0.499017 -0.000000
vn -0.866592 -0.461031 -0.190965
vn -0.500966 -0.865467 -0.000000
vn -0.500966 -0.799587 -0.331200
vn -0.130609 -0.991434 0.000000
vn -0.130609 -0.915965 -0.379405
vn 0.130609 -0.991434 -0.000000
vn 0.130609 -0.915965 -0.379405
vn 0.500966 -0.865467 0.000000
vn 0.500966 -0.799587 -0.331200
vn 0.866592 -0.499017 0.000000
vn 0.866592 -0.461031 -0.190965
vn 1.000000 0.000000 0.000000
vn -0.866592 -0.352858 -0.352858
vn -0.500966 -0.611977 -0.611978
vn -0.130609 -0.701050 -0.701050
vn 0.130610 -0.701050 -0.701050
vn 0.500966 -0.611978 -0.611978
vn 0.866592 -0.352858 -0.352858
vn -0.866592 -0.190965 -0.461031
vn -0.500966 -0.331200 -0.799587
vn -0.130609 -0.379405 -0.915965
vn 0.130610 -0.379405 -0.915965
vn 0.500966 -0.331200 -0.799587
vn 0.866592 -0.190965 -0.461031
vn -0.866592 0.000000 -0.499017
vn -0.500966 0.000000 -0.865467
vn -0.130609 0.000000 -0.991434
vn 0.130609 0.000000 -0.991434
vn 0.500966 0.000000 -0.865467
vn 0.866592 -0.000000 -0.499017
vn -0.866592 0.190965 -0.461031
vn -0.500966 0.331200 -0.799587
vn -0.130609 0.379405 -0.915965
vn 0.130609 0.379405 -0.915965
vn 0.500966 0.331200 -0.799587
vn 0.866592 0.190965 -0.461031
vn -0.866592 0.352858 -0.352858
vn -0.500966 0.611978 -0.611978
vn -0.130609 0.701050 -0.701050
vn 0.130610 0.701050 -0.701050
vn 0.500966 0.611978 -0.611978
vn 0.866592 0.352858 -0.352858
vn -0.866592 0.461031 -0.190965
vn -0.500966 0.799587 -0.331200
vn -0.130609 0.915965 -0.379405
vn 0.130610 0.915965 -0.379405
vn 0.500966 0.799587 -0.331200
vn 0.866592 0.461031 -0.190965
vn -0.866592 0.499017 0.000000
vn -0.500966 0.865467 0.000000
vn -0.130609 0.991434 0.000000
vn 0.130609 0.991434 0.000000
vn 0.500966 0.865467 0.000000
vn 0.866592 0.499017 -0.000000
vn -0.866592 0.461031 0.190965
vn -0.500966 0.799587 0.331200
vn -0.130609 0.915965 0.379405
vn 0.130609 0.915965 0.379405
vn 0.500966 0.799587 0.331200
vn 0.866592 0.461031 0.190965
vn -0.866592 0.352858 0.352858
vn -0.500966 0.611977 0.611978
vn -0.130609 0.701050 0.701050
vn 0.130610 0.701050 0.701050
vn 0.500966 0.611978 0.611978
vn 0.866592 0.352858 0.352858
vn -0.866592 0.190965 0.461031
vn -0.500966 0.331200 0.799587
vn -0.130609 0.379405 0.915965
vn 0.130610 0.379405 0.915965
vn 0.500966 0.331200 0.799587
vn 0.866592 0.190965 0.461031
vn -0.866592 -0.000000 0.499017
vn -0.500966 -0.000000 0.865467
vn -0.130609 0.000000 0.991434
vn 0.130609 -0.000000 0.991434
vn 0.500966 0.000000 0.865467
vn 0.866592 0.000000 0.499017
vn -0.866592 -0.190965 0.461031
vn -0.500966 -0.331200 0.799587
vn -0.130609 -0.379405 0.915965
vn 0.130609 -0.379405 0.915965
vn 0.500966 -0.331200 0.799587
vn 0.866592 -0.190965 0.461031
vn -0.866592 -0.352858 0.352858
vn -0.500966 -0.611978 0.611978
vn -0.130609 -0.701050 0.701050
vn 0.130610 -0.701050 0.701050
vn 0.500966 -0.611978 0.611978
vn 0.866592 -0.352858 0.352858
vn -0.866592 -0.461031 0.190965
vn -0.500966 -0.799587 0.331200
vn -0.130609 -0.915965 0.379405
vn 0.130610 -0.915965 0.379405
vn 0.500966 -0.799587 0.331200
vn 0.866592 -0.461031 0.190965
# 98 normals

vt 0.031250 0.000000 0.000000
vt 0.000000 0.029126 0.000000
vt 0.062500 0.029126 0.000000
vt 0.000000 1.000000 0.000000
vt 0.000000 0.058252 0.000000
vt 0.062500 0.058252 0.000000
vt 0.000000 0.087377 0.000000
vt 0.062500 0.087377 0.000000
vt 0.000000 0.912623 0.000000
vt 0.062500 0.912623 0.000000
vt 0.000000 0.941748 0.000000
vt 0.062500 0.941748 0.000000
vt 0.000000 0.970874 0.000000
vt 0.062500 0.970874 0.000000
vt 0.031250 1.000000 0.000000
vt 0.093750 0.000000 0.000000
vt 0.125000 0.029126 0.000000
vt 0.125000 0.058252 0.000000
vt 0.125000 0.087377 0.000000
vt 0.125000 0.912623 0.000000
vt 0.125000 0.941748 0.000000
vt 0.125000 0.970874 0.000000
vt 0.093750 1.000000 0.000000
vt 0.156250 0.000000 0.000000
vt 0.187500 0.029126 0.000000
vt 0.187500 0.058252 0.000000
vt 0.187500 0.087377 0.000000
vt 0.187500 0.912623 0.000000
vt 0.187500 0.941748 0.000000
vt 0.187500 0.970874 0.000000
vt 0.156250 1.000000 0.000000
vt 0.218750 0.000000 0.000000
vt 0.250000 0.029126 0.000000
vt 0.250000 0.058252 0.000000
vt 0.250000 0.087377 0.000000
vt 0.250000 0.912623 0.000000
vt 0.250000 0.941748 0.000000
vt 0.250000 0.970874 0.000000
vt 0.218750 1.000000 0.000000
vt 0.281250 0.000000 0.000000
vt 0.312500 0.029126 0.000000
vt 0.312500 0.058252 0.000000
vt 0.312500 0.087377 0.000000
vt 0.312500 0.912623 0.000000
vt 0.312500 0.941748 0.000000
vt 0.312500 0.970874 0.000000
vt 0.281250 1.000000 0.000000
vt 0.343750 0.000000 0.000000
vt 0.375000 0.029126 0.000000
vt 0.375000 0.058252 0.000000
vt 0.375000 0.087377 0.000000
vt 0.375000 0.912623 0.000000
vt 0.375000 0.941748 0.000000
vt 0.375000 0.970874 0.000000
vt 0.343750 1.000000 0.000000
vt 0.406250 0.000000 0.000000
vt 0.437500 0.029126 0.000000
vt 0.437500 0.058252 0.000000
vt 0.437500 0.087377 0.000000
vt 0.437500 0.912623 0.000000
vt 0.437500 0.941748 0.000000
vt 0.437500 0.970874 0.000000
vt 0.406250 1.000000 0.000000
vt 0.468750 0.000000 0.000000
vt 0.500000 0.029126 0.000000
vt 0.500000 0.058252 0.000000
vt 0.500000 0.087377 0.000000
vt 0.500000 0.912623 0.000000
vt 0.500000 0.941748 0.000000
vt 0.500000 0.970874 0.000000
vt 0.468750 1.000000 0.000000
vt 0.531250 0.000000 0.000000
vt 0.562500 0.029126 0.000000
vt 0.562500 0.058252 0.000000
vt 0.562500 0.087377 0.000000
vt 0.562500 0.912623 0.000000
vt 0.562500 0.941748 0.000000
vt 0.562500 0.970874 0.000000
vt 0.531250 1.000000 0.000000
vt 0.593750 0.000000 0.000000
vt 0.625000 0.029126 0.000000
vt 0.625000 0.058252 0.000000
vt 0.625000 0.087377 0.000000
vt 0.625000 0.912623 0.000000
vt 0.625000 0.941748 0.000000
vt 0.625000 0.970874 0.000000
vt 0.593750 1.000000 0.000000
vt 0.656250 0.000000 0.000000
vt 0.687500 0.029126 0.000000
vt 0.687500 0.058252 0.000000
vt 0.687500 0.087377 0.000000
vt 0.687500 0.912623 0.000000
vt 0.687500 0.941748 0.000000
vt 0.687500 0.970874 0.000000
vt 0.656250 1.000000 0.000000
vt 0.718750 0.000000 0.000000
vt 0.750000 0.029126 0.000000
vt 0.750000 0.058252 0.000000
vt 0.750000 0.087377 0.000000
vt 0.750000 0.912623 0.000000
vt 0.750000 0.941748 0.000000
vt 0.750000 0.970874 0.000000
vt 0.718750 1.000000 0.000000
vt 0.781250 0.000000 0.000000
vt 0.812500 0.029126 0.000000
vt 0.812500 0.058252 0.000000
vt 0.812500 0.087377 0.000000
vt 0.812500 0.912623 0.000000
vt 0.812500 0.941748 0.000000
vt 0.812500 0.970874 0.000000
vt 0.781250 1.000000 0.000000
vt 0.843750 0.000000 0.000000
vt 0.875000 0.029126 0.000000
vt 0.875000 0.058252 0.000000
vt 0.875000 0.087377 0.000000
vt 0.875000 0.912623 0.000000
vt 0.875000 0.941748 0.000000
vt 0.875000 0.970874 0.000000
vt 0.843750 1.000000 0.000000
vt 0.906250 0.000000 0.000000
vt 0.937500 0.029126 0.000000
vt 0.937500 0.058252 0.000000
vt 0.937500 0.087377 0.000000
vt 0.937500 0.912623 0.000000
vt 0.937500 0.941748 0.000000
vt 0.937500 0.970874 0.000000
vt 0.906250 1.000000 0.000000
vt 0.968750 0.000000 0.000000
vt 1.000000 0.029126 0.000000
vt 1.000000 0.058252 0.000000
vt 1.000000 0.087377 0.000000
vt 1.000000 0.912623 0.000000
vt 1.000000 0.941748 0.000000
vt 1.000000 0.970874 0.000000
vt 0.968750 1.000000 0.000000
# 135 texture coordinates

o Cylinder
usemtl default
f 9/3/3 3/2/2 1/1/1
f 9/3/3 10/6/5 4/5/4 3/2/2
f 10/6/5 11/8/7 5/7/6 4/5/4
f 11/8/7 12/10/9 6/9/8 5/7/6
f 12/10/9 13/12/11 7/11/10 6/9/8
f 13/12/11 14/14/13 8/13/12 7/11/10
f 14/14/13 2/15/14 8/13/12
f 15/17/15 9/3/3 1/16/1
f 15/17/15 16/18/16 10/6/5 9/3/3
f 16/18/16 17/19/17 11/8/7 10/6/5
f 17/19/17 18/20/18 12/10/9 11/8/7
f 18/20/18 19/21/19 13/12/11 12/10/9
f 19/21/19 20/22/20 14/14/13 13/12/11
f 20/22/20 2/23/14 14/14/13
f 21/25/21 15/17/15 1/24/1
f 21/25/21 22/26/22 16/18/16 15/17/15
f 22/26/22 23/27/23 17/19/17 16/18/16
f 23/27/23 24/28/24 18/20/18 17/19/17
f 24/28/24 25/29/25 19/21/19 18/20/18
f 25/29/25 26/30/26 20/22/20 19/21/19
f 26/30/26 2/31/14 20/22/20
f 27/33/27 21/25/21 1/32/1
f 27/33/27 28/34/28 22/26/22 21/25/21
f 28/34/28 29/35/29 23/27/23 22/26/22
f 29/35/29 30/36/30 24/28/24 23/27/23
f 30/36/30 31/37/31 25/29/25 24/28/24
f 31/37/31 32/38/32 26/30/26 25/29/25
f 32/38/32 2/39/14 26/30/26
f 33/41/33 27/33/27 1/40/1
f 33/41/33 34/42/34 28/34/28 27/33/27
f 34/42/34 35/43/35 29/35/29 28/34/28
f 35/43/35 36/44/36 30/36/30 29/35/29
f 36/44/36 37/45/37 31/37/31 30/36/30
f 37/45/37 38/46/38 32/38/32 31/37/31
f 38/46/38 2/47/14 32/38/32
f 39/49/39 33/41/33 1/48/1
f 39/49/39 40/50/40 34/42/34 33/41/33
f 40/50/40 41/51/41 35/43/35 34/42/34
f 41/51/41 42/52/42 36/44/36 35/43/35
f 42/52/42 43/53/43 37/45/37 36/44/36
f 43/53/43 44/54/44 38/46/38 37/45/37
f 44/54/44 2/55/14 38/46/38
f 45/57/45 39/49/39 1/56/1
f 45/57/45 46/58/46 40/50/40 39/49/39
f 46/58/46 47/59/47 41/51/41 40/50/40
f 47/59/47 48/60/48 42/52/42 41/51/41
f 48/60/48 49/61/49 43/53/43 42/52/42
f 49/61/49 50/62/50 44/54/44 43/53/43
f 50/62/50 2/63/14 44/54/44
f 51/65/51 45/57/45 1/64/1
f 51/65/51 52/66/52 46/58/46 45/57/45
f 52/66/52 53/67/53 47/59/47 46/58/46
f 53/67/53 54/68/54 48/60/48 47/59/47
f 54/68/54 55/69/55 49/61/49 48/60/48
f 55/69/55 56/70/56 50/62/50 49/61/49
f 56/70/56 2/71/14 50/62/50
f 57/73/57 51/65/51 1/72/1
f 57/73/57 58/74/58 52/66/52 51/65/51
f 58/74/58 59/75/59 53/67/53 52/66/52
f 59/75/59 60/76/60 54/68/54 53/67/53
f 60/76/60 61/77/61 55/69/55 54/68/54
f 61/77/61 62/78/62 56/70/56 55/69/55
f 62/78/62 2/79/14 56/70/56
f 63/81/63 57/73/57 1/80/1
f 63/81/63 64/82/64 58/74/58 57/73/57
f 64/82/64 65/83/65 59/75/59 58/74/58
f 65/83/65 66/84/66 60/76/60 59/75/59
f 66/84/66 67/85/67 61/77/61 60/76/60
f 67/85/67 68/86/68 62/78/62 61/77/61
f 68/86/68 2/87/14 62/78/62
f 69/89/69 63/81/63 1/88/1
f 69/89/69 70/90/70 64/82/64 63/81/63
f 70/90/70 71/91/71 65/83/65 64/82/64
f 71/91/71 72/92/72 66/84/66 65/83/65
f 72/92/72 73/93/73 67/85/67 66/84/66
f 73/93/73 74/94/74 68/86/68 67/85/67
f 74/94/74 2/95/14 68/86/68
f 75/97/75 69/89/69 1/96/1
f 75/97/75 76/98/76 70/90/70 69/89/69
f 76/98/76 77/99/77 71/91/71 70/90/70
f 77/99/77 78/100/78 72/92/72 71/91/71
f 78/100/78 79/101/79 73/93/73 72/92/72
f 79/101/79 80/102/80 74/94/74 73/93/73
f 80/102/80 2/103/14 74/94/74
f 81/105/81 75/97/75 1/104/1
f 81/105/81 82/106/82 76/98/76 75/97/75
f 82/106/82 83/107/83 77/99/77 76/98/76
f 83/107/83 84/108/84 78/100/78 77/99/77
f 84/108/84 85/109/85 79/101/79 78/100/78
f 85/109/85 86/110/86 80/102/80 79/101/79
f 86/110/86 2/111/14 80/102/80
f 87/113/87 81/105/81 1/112/1
f 87/113/87 88/114/88 82/106/82 81/105/81
f 88/114/88 89/115/89 83/107/83 82/106/82
f 89/115/89 90/116/90 84/108/84 83/107/83
f 90/116/90 91/117/91 85/109/85 84/108/84
f 91/117/91 92/118/92 86/110/86 85/109/85
f 92/118/92 2/119/14 86/110/86
f 93/121/93 87/113/87 1/120/1
f 93/121/93 94/122/94 88/114/88 87/113/87
f 94/122/94 95/123/95 89/115/89 88/114/88
f 95/123/95 96/124/96 90/116/90 89/115/89
f 96/124/96 97/125/97 91/117/91 90/116/90
f 97/125/97 98/126/98 92/118/92 91/117/91
f 98/126/98 2/127/14 92/118/92
f 3/129/2 93/121/93 1/128/1
f 3/129/2 4/130/4 94/122/94 93/121/93
f 4/130/4 5/131/6 95/123/95 94/122/94
f 5/131/6 6/132/8 96/124/96 95/123/95
f 6/132/8 7/133/10 97/125/97 96/124/96
f 7/133/10 8/134/12 98/126/98 97/125/97
f 8/134/12 2/135/14 98/126/98

