# WaveFront *.obj file (generated by Cinema 4D)

mtllib ./plt-01.mtl

v -0.406250 -0.406250 0.000000
v -0.406250 0.406250 0.000000
v 0.406250 -0.406250 0.000000
v 0.406250 0.406250 0.000000
# 4 vertices

vn 0.000000 0.000000 1.000000
# 1 normal

vt 0.000000 0.000000 0.000000
vt 0.000000 1.000000 0.000000
vt 1.000000 1.000000 0.000000
vt 1.000000 0.000000 0.000000
# 4 texture coordinates

o Cube.3
usemtl Mat.3_1
f 3/4/1 4/3/1 2/2/1 1/1/1

v -0.406250 0.406250 0.000000
v 0.406250 0.406250 0.000000
v -0.406250 0.386250 0.000000
v 0.406250 0.386250 0.000000
v -0.406250 0.390070 -0.011756
v 0.406250 0.390070 -0.011756
v -0.406250 0.400070 -0.019021
v 0.406250 0.400070 -0.019021
v -0.406250 0.412430 -0.019021
v 0.406250 0.412430 -0.019021
v -0.406250 0.422430 -0.011756
v 0.406250 0.422430 -0.011756
v -0.406250 0.426250 -0.000000
v 0.406250 0.426250 -0.000000
v -0.406250 0.422430 0.011756
v 0.406250 0.422430 0.011756
v -0.406250 0.412430 0.019021
v 0.406250 0.412430 0.019021
v -0.406250 0.400070 0.019021
v 0.406250 0.400070 0.019021
v -0.406250 0.390070 0.011756
v 0.406250 0.390070 0.011756
# 22 vertices

vn -1.000000 0.000000 0.000000
vn 0.000000 -1.000000 -0.000001
vn 0.000000 -0.809017 -0.587785
vn 1.000000 0.000000 0.000000
vn 0.000000 -0.309017 -0.951056
vn 0.000000 0.309017 -0.951056
vn 0.000000 0.809017 -0.587785
vn 0.000000 1.000000 0.000000
vn 0.000000 0.809017 0.587785
vn 0.000000 0.309017 0.951056
vn 0.000000 -0.309017 0.951056
vn 0.000000 -0.809017 0.587785
# 12 normals

vt 0.500000 0.500000 0.000000
vt 0.000000 0.500000 0.000000
vt 0.095492 0.793893 0.000000
vt 0.100000 1.000000 0.000000
vt 0.100000 0.000000 0.000000
vt 1.000000 0.500000 0.000000
vt 0.904508 0.793893 0.000000
vt 0.345491 0.975528 0.000000
vt 0.200000 1.000000 0.000000
vt 0.200000 0.000000 0.000000
vt 0.654508 0.975528 0.000000
vt 0.300000 1.000000 0.000000
vt 0.300000 0.000000 0.000000
vt 0.400000 1.000000 0.000000
vt 0.400000 0.000000 0.000000
vt 0.500000 1.000000 0.000000
vt 0.500000 0.000000 0.000000
vt 0.904508 0.206107 0.000000
vt 0.600000 1.000000 0.000000
vt 0.600000 0.000000 0.000000
vt 0.095492 0.206107 0.000000
vt 0.654508 0.024472 0.000000
vt 0.700000 1.000000 0.000000
vt 0.700000 0.000000 0.000000
vt 0.345491 0.024472 0.000000
vt 0.800000 1.000000 0.000000
vt 0.800000 0.000000 0.000000
vt 0.900000 1.000000 0.000000
vt 0.900000 0.000000 0.000000
# 29 texture coordinates

o Cylinder
usemtl Mat.4_1
f 9/7/2 7/6/2 5/5/2
f 9/9/4 10/8/4 8/2/3 7/1/3
f 10/11/5 6/5/5 8/10/5
f 11/12/2 9/7/2 5/5/2
f 11/14/6 12/13/6 10/8/4 9/9/4
f 12/15/5 6/5/5 10/11/5
f 13/15/2 11/12/2 5/5/2
f 13/17/7 14/16/7 12/13/6 11/14/6
f 14/12/5 6/5/5 12/15/5
f 15/11/2 13/15/2 5/5/2
f 15/19/8 16/18/8 14/16/7 13/17/7
f 16/7/5 6/5/5 14/12/5
f 17/10/2 15/11/2 5/5/2
f 17/21/9 18/20/9 16/18/8 15/19/8
f 18/6/5 6/5/5 16/7/5
f 19/22/2 17/10/2 5/5/2
f 19/24/10 20/23/10 18/20/9 17/21/9
f 20/25/5 6/5/5 18/6/5
f 21/26/2 19/22/2 5/5/2
f 21/28/11 22/27/11 20/23/10 19/24/10
f 22/29/5 6/5/5 20/25/5
f 23/29/2 21/26/2 5/5/2
f 23/31/12 24/30/12 22/27/11 21/28/11
f 24/26/5 6/5/5 22/29/5
f 25/25/2 23/29/2 5/5/2
f 25/33/13 26/32/13 24/30/12 23/31/12
f 26/22/5 6/5/5 24/26/5
f 7/6/2 25/25/2 5/5/2
f 7/4/3 8/3/3 26/32/13 25/33/13
f 8/10/5 6/5/5 26/22/5

