# WaveFront *.obj file (generated by Cinema 4D)

mtllib ./plt-11.mtl

v -0.406250 -0.406200 0.000000
v 0.406250 -0.406200 0.000000
v -0.406250 -0.426200 0.000000
v 0.406250 -0.426200 0.000000
v -0.406250 -0.422380 -0.011756
v 0.406250 -0.422380 -0.011756
v -0.406250 -0.412380 -0.019021
v 0.406250 -0.412380 -0.019021
v -0.406250 -0.400020 -0.019021
v 0.406250 -0.400020 -0.019021
v -0.406250 -0.390020 -0.011756
v 0.406250 -0.390020 -0.011756
v -0.406250 -0.386200 -0.000000
v 0.406250 -0.386200 -0.000000
v -0.406250 -0.390020 0.011756
v 0.406250 -0.390020 0.011756
v -0.406250 -0.400020 0.019021
v 0.406250 -0.400020 0.019021
v -0.406250 -0.412380 0.019021
v 0.406250 -0.412380 0.019021
v -0.406250 -0.422380 0.011756
v 0.406250 -0.422380 0.011756
# 22 vertices

vn -1.000000 0.000000 0.000000
vn 0.000000 -1.000000 -0.000001
vn 0.000000 -0.809017 -0.587785
vn 1.000000 0.000000 0.000000
vn 0.000000 -0.309017 -0.951056
vn 0.000000 0.309017 -0.951056
vn 0.000000 0.809017 -0.587785
vn 0.000000 1.000000 0.000000
vn 0.000000 0.809017 0.587785
vn 0.000000 0.309017 0.951056
vn 0.000000 -0.309017 0.951056
vn 0.000000 -0.809017 0.587785
# 12 normals

vt 0.500000 0.500000 0.000000
vt 0.000000 0.500000 0.000000
vt 0.095492 0.793893 0.000000
vt 0.000000 1.000000 0.000000
vt 0.000000 0.000000 0.000000
vt 0.100000 1.000000 0.000000
vt 0.100000 0.000000 0.000000
vt 1.000000 0.500000 0.000000
vt 0.904508 0.793893 0.000000
vt 0.345491 0.975528 0.000000
vt 0.200000 1.000000 0.000000
vt 0.200000 0.000000 0.000000
vt 0.654508 0.975528 0.000000
vt 0.300000 1.000000 0.000000
vt 0.300000 0.000000 0.000000
vt 0.400000 1.000000 0.000000
vt 0.400000 0.000000 0.000000
vt 0.500000 1.000000 0.000000
vt 0.500000 0.000000 0.000000
vt 0.904508 0.206107 0.000000
vt 0.600000 1.000000 0.000000
vt 0.600000 0.000000 0.000000
vt 0.095492 0.206107 0.000000
vt 0.654508 0.024472 0.000000
vt 0.700000 1.000000 0.000000
vt 0.700000 0.000000 0.000000
vt 0.345491 0.024472 0.000000
vt 0.800000 1.000000 0.000000
vt 0.800000 0.000000 0.000000
vt 0.900000 1.000000 0.000000
vt 0.900000 0.000000 0.000000
vt 1.000000 1.000000 0.000000
vt 1.000000 0.000000 0.000000
# 33 texture coordinates

o Cylinder.1
usemtl Mat.4_1
f 5/3/1 3/2/1 1/1/1
f 5/7/3 6/6/3 4/4/2 3/5/2
f 6/9/4 2/1/4 4/8/4
f 7/10/1 5/3/1 1/1/1
f 7/12/5 8/11/5 6/6/3 5/7/3
f 8/13/4 2/1/4 6/9/4
f 9/13/1 7/10/1 1/1/1
f 9/15/6 10/14/6 8/11/5 7/12/5
f 10/10/4 2/1/4 8/13/4
f 11/9/1 9/13/1 1/1/1
f 11/17/7 12/16/7 10/14/6 9/15/6
f 12/3/4 2/1/4 10/10/4
f 13/8/1 11/9/1 1/1/1
f 13/19/8 14/18/8 12/16/7 11/17/7
f 14/2/4 2/1/4 12/3/4
f 15/20/1 13/8/1 1/1/1
f 15/22/9 16/21/9 14/18/8 13/19/8
f 16/23/4 2/1/4 14/2/4
f 17/24/1 15/20/1 1/1/1
f 17/26/10 18/25/10 16/21/9 15/22/9
f 18/27/4 2/1/4 16/23/4
f 19/27/1 17/24/1 1/1/1
f 19/29/11 20/28/11 18/25/10 17/26/10
f 20/24/4 2/1/4 18/27/4
f 21/23/1 19/27/1 1/1/1
f 21/31/12 22/30/12 20/28/11 19/29/11
f 22/20/4 2/1/4 20/24/4
f 3/2/1 21/23/1 1/1/1
f 3/33/2 4/32/2 22/30/12 21/31/12
f 4/8/4 2/1/4 22/20/4

v -0.406250 -0.406250 0.000000
v -0.406250 0.406250 0.000000
v 0.406250 -0.406250 0.000000
v 0.406250 0.406250 0.000000
# 4 vertices

vn 0.000000 0.000000 1.000000
# 1 normal

# 0 texture coordinate

o Cube.3
usemtl Mat.3_1
f 25/33/13 26/32/13 24/4/13 23/5/13

v -0.406250 0.406250 0.000000
v 0.406250 0.406250 0.000000
v -0.406250 0.386250 0.000000
v 0.406250 0.386250 0.000000
v -0.406250 0.390070 -0.011756
v 0.406250 0.390070 -0.011756
v -0.406250 0.400070 -0.019021
v 0.406250 0.400070 -0.019021
v -0.406250 0.412430 -0.019021
v 0.406250 0.412430 -0.019021
v -0.406250 0.422430 -0.011756
v 0.406250 0.422430 -0.011756
v -0.406250 0.426250 -0.000000
v 0.406250 0.426250 -0.000000
v -0.406250 0.422430 0.011756
v 0.406250 0.422430 0.011756
v -0.406250 0.412430 0.019021
v 0.406250 0.412430 0.019021
v -0.406250 0.400070 0.019021
v 0.406250 0.400070 0.019021
v -0.406250 0.390070 0.011756
v 0.406250 0.390070 0.011756
# 22 vertices

vn 0.000000 0.809017 -0.587785
vn 0.000000 0.809017 0.587785
# 2 normals

# 0 texture coordinate

o Cylinder
usemtl Mat.4_1
f 31/3/1 29/2/1 27/1/1
f 31/7/3 32/6/3 30/4/2 29/5/2
f 32/9/4 28/1/4 30/8/4
f 33/10/1 31/3/1 27/1/1
f 33/12/5 34/11/5 32/6/3 31/7/3
f 34/13/4 28/1/4 32/9/4
f 35/13/1 33/10/1 27/1/1
f 35/15/6 36/14/6 34/11/5 33/12/5
f 36/10/4 28/1/4 34/13/4
f 37/9/1 35/13/1 27/1/1
f 37/17/14 38/16/14 36/14/6 35/15/6
f 38/3/4 28/1/4 36/10/4
f 39/8/1 37/9/1 27/1/1
f 39/19/8 40/18/8 38/16/14 37/17/14
f 40/2/4 28/1/4 38/3/4
f 41/20/1 39/8/1 27/1/1
f 41/22/15 42/21/15 40/18/8 39/19/8
f 42/23/4 28/1/4 40/2/4
f 43/24/1 41/20/1 27/1/1
f 43/26/10 44/25/10 42/21/15 41/22/15
f 44/27/4 28/1/4 42/23/4
f 45/27/1 43/24/1 27/1/1
f 45/29/11 46/28/11 44/25/10 43/26/10
f 46/24/4 28/1/4 44/27/4
f 47/23/1 45/27/1 27/1/1
f 47/31/12 48/30/12 46/28/11 45/29/11
f 48/20/4 28/1/4 46/24/4
f 29/2/1 47/23/1 27/1/1
f 29/33/2 30/32/2 48/30/12 47/31/12
f 30/8/4 28/1/4 48/20/4

