# WaveFront *.obj file (generated by Cinema 4D)

mtllib ./star.mtl

v 3.000000 -0.220000 0.000000
v 0.572949 0.220000 -1.236644
v 2.072949 -0.220000 -0.146830
v 0.000000 -0.220000 -3.000000
v -0.146830 0.220000 -2.072949
v 0.146830 -0.220000 -2.072949
v -3.000000 -0.220000 -0.000000
v 0.000000 0.220000 -3.000000
v 3.000000 0.220000 0.000000
v -0.572949 -0.220000 -1.236644
v 2.072949 0.220000 -0.146830
v -3.000000 0.220000 -0.000000
v 1.236644 -0.220000 -0.572949
v 0.146830 0.220000 -2.072949
v 1.236644 0.220000 -0.572949
v -0.146830 -0.220000 -2.072949
v 1.236644 0.220000 0.572949
v 0.572949 -0.220000 -1.236644
v -2.072949 -0.220000 -0.146830
v 2.072949 -0.220000 0.146830
v -0.572949 0.220000 1.236644
v -2.072949 0.220000 -0.146830
v 0.146830 0.220000 2.072949
v 0.000000 -0.220000 3.000000
v -0.000000 0.220000 3.000000
v 2.072949 0.220000 0.146830
v -0.146830 -0.220000 2.072949
v 0.572949 0.220000 1.236644
v -1.236644 -0.220000 0.572949
v -0.572949 -0.220000 1.236644
v -1.236644 -0.220000 -0.572949
v -1.236644 0.220000 0.572949
v 1.236644 -0.220000 0.572949
v -1.236644 0.220000 -0.572949
v -0.572949 0.220000 -1.236644
v 0.572949 -0.220000 1.236644
v 0.146830 -0.220000 2.072949
v -2.072949 -0.220000 0.146830
v -2.072949 0.220000 0.146830
v -0.146830 0.220000 2.072949
v 0.761491 0.220000 -1.048102
v 1.048102 0.220000 -0.761491
v 1.441737 -0.220000 -0.468449
v 0.761491 -0.220000 -1.048102
v -0.761491 0.220000 -1.048102
v 1.048102 -0.220000 -0.761491
v 0.468449 -0.220000 -1.441737
v -0.761491 -0.220000 -1.048102
v 1.441737 0.220000 -0.468449
v -0.468449 -0.220000 -1.441737
v -1.048102 -0.220000 -0.761491
v 0.468449 0.220000 -1.441737
v -1.048102 -0.220000 0.761491
v -1.441737 -0.220000 -0.468449
v -1.441737 0.220000 -0.468449
v -1.048102 0.220000 -0.761491
v -0.468449 -0.220000 1.441737
v -0.468449 0.220000 -1.441737
v -1.441737 -0.220000 0.468449
v -1.441737 0.220000 0.468449
v -0.761491 -0.220000 1.048102
v -1.048102 0.220000 0.761491
v -0.468449 0.220000 1.441737
v -0.761491 0.220000 1.048102
v 0.468449 0.220000 1.441737
v 0.468449 -0.220000 1.441737
v 0.761491 0.220000 1.048102
v 0.761491 -0.220000 1.048102
v 1.048102 -0.220000 0.761491
v 1.048102 0.220000 0.761491
v 1.441737 -0.220000 0.468449
v 1.441737 0.220000 0.468449
# 72 vertices

vn -0.809017 0.000000 0.587785
vn -0.891007 0.000000 0.453991
vn -0.827221 -0.000000 0.561876
vn 0.544315 0.000000 -0.838881
vn 0.649819 0.000000 -0.760089
vn 0.453991 0.000000 -0.891007
vn -0.707107 -0.000000 0.707107
vn -0.707107 0.000000 0.707107
vn 0.809017 0.000000 -0.587785
vn 0.707107 0.000000 -0.707107
vn 0.951057 0.000000 -0.309017
vn 0.891006 0.000000 -0.453991
vn 0.891007 0.000000 -0.453991
vn -0.358728 0.000000 0.933442
vn -0.258446 0.000000 0.966026
vn -0.453991 0.000000 0.891007
vn 0.838881 0.000000 0.544315
vn 0.891007 0.000000 0.453991
vn 0.891006 0.000000 0.453991
vn -0.309017 0.000000 -0.951057
vn -0.338973 0.000000 -0.940796
vn -0.453991 0.000000 -0.891007
vn 0.707107 -0.000000 0.707107
vn 0.707107 0.000000 0.707107
vn 0.760089 -0.000000 0.649819
vn 0.544315 0.000000 0.838881
vn 0.453991 0.000000 0.891007
vn 0.453991 0.000000 0.891006
vn -0.522083 0.000000 -0.852895
vn -0.629620 0.000000 -0.776903
vn -0.707107 0.000000 -0.707107
vn -0.809017 0.000000 -0.587785
vn -0.891007 -0.000000 -0.453991
vn -0.827221 0.000000 -0.561876
vn 0.000000 -1.000000 0.000000
vn 0.000000 1.000000 0.000000
vn -0.987688 -0.000000 0.156434
vn -0.987688 -0.000000 0.156434
vn -0.966026 -0.000000 0.258446
vn 0.309017 0.000000 -0.951057
vn 0.156434 0.000000 -0.987688
vn 0.987688 0.000000 -0.156434
vn 0.951057 0.000000 0.309017
vn 0.987688 0.000000 0.156434
vn -0.156434 0.000000 0.987688
vn -0.156434 0.000000 -0.987688
vn 0.309017 0.000000 0.951057
vn 0.156434 0.000000 0.987688
vn -0.966026 0.000000 -0.258446
vn -0.923693 0.000000 -0.383134
vn -0.987688 0.000000 -0.156434
vn -0.923693 -0.000000 0.383134
vn -0.891007 -0.000000 0.453991
vn -0.707107 0.000000 0.707107
vn -0.613105 -0.000000 0.790001
vn -0.587785 0.000000 0.809017
vn -0.707107 -0.000000 0.707107
vn 0.707107 0.000000 -0.707107
vn 0.707107 0.000000 -0.707107
vn 0.707107 -0.000000 -0.707107
vn -0.453991 0.000000 0.891006
vn -0.453991 -0.000000 -0.891007
vn 0.707107 -0.000000 0.707107
vn 0.707107 0.000000 0.707107
vn 0.629620 0.000000 0.776903
vn -0.707107 0.000000 -0.707107
vn -0.707107 0.000000 -0.707107
vn -0.891007 0.000000 -0.453991
vn 0.000000 -1.000000 0.000000
vn 0.000000 1.000000 0.000000
# 70 normals

vt 0.100000 0.940000 0.000000
vt 0.087738 0.940000 0.000000
vt 0.100000 0.060000 0.000000
vt 0.000000 1.000000 0.000000
vt 0.650000 0.940000 0.000000
vt 0.650000 0.060000 0.000000
vt 0.662262 0.060000 0.000000
vt 0.114204 0.060000 0.000000
vt 0.114204 0.940000 0.000000
vt 0.600000 0.060000 0.000000
vt 0.614204 0.060000 0.000000
vt 0.600000 0.940000 0.000000
vt 0.550000 0.060000 0.000000
vt 0.587738 0.060000 0.000000
vt 0.587738 0.940000 0.000000
vt 0.200000 0.060000 0.000000
vt 0.200000 0.940000 0.000000
vt 0.162262 0.940000 0.000000
vt 0.400000 0.060000 0.000000
vt 0.412262 0.060000 0.000000
vt 0.412262 0.940000 0.000000
vt 0.800000 0.940000 0.000000
vt 0.800000 0.060000 0.000000
vt 0.837738 0.940000 0.000000
vt 0.364204 0.060000 0.000000
vt 0.385796 0.060000 0.000000
vt 0.400000 0.940000 0.000000
vt 0.350000 0.940000 0.000000
vt 0.337738 0.940000 0.000000
vt 0.337738 0.060000 0.000000
vt 0.850000 0.940000 0.000000
vt 0.850000 0.060000 0.000000
vt 0.864204 0.940000 0.000000
vt 0.900000 0.060000 0.000000
vt 0.912262 0.060000 0.000000
vt 0.900000 0.940000 0.000000
vt 0.864204 0.060000 0.000000
vt 0.614204 0.940000 0.000000
vt 0.885796 0.940000 0.000000
vt 0.000000 0.940000 0.000000
vt 0.000000 0.060000 0.000000
vt 0.050000 0.060000 0.000000
vt 0.700000 0.940000 0.000000
vt 0.700000 0.060000 0.000000
vt 0.750000 0.060000 0.000000
vt 0.500000 0.940000 0.000000
vt 0.500000 0.060000 0.000000
vt 0.450000 0.940000 0.000000
vt 0.450000 0.060000 0.000000
vt 0.250000 0.060000 0.000000
vt 0.250000 0.940000 0.000000
vt 0.750000 0.940000 0.000000
vt 0.300000 0.060000 0.000000
vt 0.300000 0.940000 0.000000
vt 0.950000 0.940000 0.000000
vt 0.950000 0.060000 0.000000
vt 1.000000 0.060000 0.000000
vt 0.050000 0.940000 0.000000
vt 0.550000 0.940000 0.000000
vt 1.000000 0.940000 0.000000
vt 0.087738 0.060000 0.000000
vt 0.662262 0.940000 0.000000
vt 0.135796 0.060000 0.000000
vt 0.150000 0.940000 0.000000
vt 0.150000 0.060000 0.000000
vt 0.135796 0.940000 0.000000
vt 0.635796 0.060000 0.000000
vt 0.635796 0.940000 0.000000
vt 0.162262 0.060000 0.000000
vt 0.837738 0.060000 0.000000
vt 0.385796 0.940000 0.000000
vt 0.364204 0.940000 0.000000
vt 0.350000 0.060000 0.000000
vt 0.885796 0.060000 0.000000
vt 0.912262 0.940000 0.000000
# 75 texture coordinates

o Cylinder.4
usemtl default
f 30/3/3 63/2/2 21/1/1
f 43/7/6 13/6/5 15/5/4
f 64/9/8 61/8/7 30/3/3
f 2/12/9 44/11/10 18/10/9
f 52/15/13 47/14/12 6/13/11
f 60/18/16 39/17/15 38/16/14
f 65/21/19 66/20/18 36/19/17
f 55/24/22 19/23/21 22/22/20
f 28/27/25 68/26/24 69/25/23
f 71/30/28 72/29/27 17/28/26
f 56/33/31 31/32/30 34/31/29
f 35/36/34 50/35/33 10/34/32
f 69/25/35 68/26/35 51/37/35
f 35/36/36 45/39/36 41/38/36
f 27/42/39 24/41/38 25/40/37
f 1/45/41 3/44/40 11/43/40
f 6/13/11 4/47/42 8/46/42
f 24/47/44 37/49/43 23/48/43
f 39/17/15 12/51/45 7/50/45
f 19/23/21 7/45/46 12/52/46
f 9/51/48 26/54/47 20/53/47
f 4/57/51 16/56/50 5/55/49
f 40/58/52 27/42/39 25/40/37
f 9/52/41 1/45/41 11/43/40
f 14/59/11 6/13/11 8/46/42
f 25/46/44 24/47/44 23/48/43
f 38/16/14 39/17/15 7/50/45
f 22/22/20 19/23/21 12/52/46
f 1/50/48 9/51/48 20/53/47
f 8/60/51 4/57/51 5/55/49
f 40/58/52 63/2/2 30/3/3
f 40/58/52 57/61/53 27/42/39
f 43/7/6 49/62/6 11/43/40
f 32/64/55 53/63/54 61/8/7
f 29/65/56 53/63/54 32/64/55
f 61/8/7 64/9/8 62/66/57
f 41/38/59 46/67/58 44/11/10
f 41/38/59 42/68/60 13/6/5
f 13/6/5 42/68/60 15/5/4
f 47/14/12 52/15/13 2/12/9
f 60/18/16 38/16/14 59/69/61
f 32/64/55 59/69/61 29/65/56
f 66/20/18 65/21/19 23/48/43
f 19/23/21 55/24/22 34/31/29
f 54/70/62 34/31/29 31/32/30
f 36/19/17 68/26/24 28/27/25
f 69/25/23 70/72/64 67/71/63
f 70/72/64 69/25/23 33/73/65
f 72/29/27 71/30/28 20/53/47
f 51/37/66 31/32/30 56/33/31
f 45/39/67 48/74/67 51/37/66
f 48/74/67 45/39/67 35/36/34
f 16/56/50 50/35/33 35/36/34
f 16/56/50 58/75/68 5/55/49
f 51/37/35 53/63/35 29/65/35
f 54/70/35 31/32/35 29/65/35
f 54/70/35 59/69/35 38/16/35
f 38/16/35 7/45/69 19/23/35
f 68/26/35 61/8/35 53/63/35
f 61/8/35 68/26/35 36/19/35
f 57/61/35 30/3/35 36/19/35
f 57/61/35 66/20/35 37/49/35
f 37/49/35 24/47/35 27/42/35
f 69/25/35 46/67/35 13/6/35
f 71/30/35 33/73/35 13/6/35
f 71/30/35 43/7/35 3/44/35
f 3/44/35 1/45/35 20/53/35
f 69/25/35 48/74/35 44/11/35
f 44/11/35 48/74/35 10/34/35
f 47/14/35 18/10/35 10/34/35
f 47/14/35 50/35/35 16/56/35
f 16/56/35 4/57/35 6/13/35
f 58/75/36 35/36/36 2/12/36
f 5/55/36 58/75/36 52/15/36
f 14/59/36 8/60/36 5/55/36
f 62/66/36 64/9/36 42/68/36
f 15/5/36 42/68/36 70/72/36
f 15/5/36 17/28/36 72/29/36
f 11/43/36 49/62/36 72/29/36
f 26/54/36 9/52/36 11/43/36
f 64/9/36 67/71/36 70/72/36
f 28/27/36 67/71/36 64/9/36
f 28/27/36 21/1/36 63/2/36
f 65/21/36 63/2/36 40/58/36
f 40/58/36 25/46/36 23/48/36
f 32/64/36 62/66/36 56/33/36
f 32/64/36 34/31/36 55/24/36
f 39/17/36 60/18/36 55/24/36
f 22/22/36 12/52/70 39/17/36
f 62/66/36 41/38/36 45/39/36
f 57/61/53 40/58/52 30/3/3
f 3/44/40 43/7/6 11/43/40
f 62/66/57 32/64/55 61/8/7
f 2/12/9 41/38/59 44/11/10
f 46/67/58 41/38/59 13/6/5
f 18/10/9 47/14/12 2/12/9
f 32/64/55 60/18/16 59/69/61
f 37/49/43 66/20/18 23/48/43
f 54/70/62 19/23/21 34/31/29
f 17/28/26 70/72/64 33/73/65
f 26/54/47 72/29/27 20/53/47
f 45/39/67 51/37/66 56/33/31
f 10/34/32 48/74/67 35/36/34
f 58/75/68 16/56/50 35/36/34
f 31/32/35 51/37/35 29/65/35
f 59/69/35 54/70/35 29/65/35
f 19/23/35 54/70/35 38/16/35
f 51/37/35 68/26/35 53/63/35
f 30/3/35 61/8/35 36/19/35
f 66/20/35 57/61/35 36/19/35
f 27/42/35 57/61/35 37/49/35
f 33/73/35 69/25/35 13/6/35
f 43/7/35 71/30/35 13/6/35
f 20/53/35 71/30/35 3/44/35
f 46/67/35 69/25/35 44/11/35
f 18/10/35 44/11/35 10/34/35
f 50/35/35 47/14/35 10/34/35
f 6/13/35 47/14/35 16/56/35
f 52/15/36 58/75/36 2/12/36
f 14/59/36 5/55/36 52/15/36
f 41/38/36 62/66/36 42/68/36
f 17/28/36 15/5/36 70/72/36
f 49/62/36 15/5/36 72/29/36
f 26/54/36 11/43/36 72/29/36
f 42/68/36 64/9/36 70/72/36
f 21/1/36 28/27/36 64/9/36
f 65/21/36 28/27/36 63/2/36
f 23/48/36 65/21/36 40/58/36
f 34/31/36 32/64/36 56/33/36
f 60/18/36 32/64/36 55/24/36
f 22/22/36 39/17/36 55/24/36
f 56/33/36 62/66/36 45/39/36
f 49/62/6 43/7/6 15/5/4
f 21/1/1 64/9/8 30/3/3
f 14/59/11 52/15/13 6/13/11
f 28/27/25 65/21/19 36/19/17
f 67/71/63 28/27/25 69/25/23
f 33/73/65 71/30/28 17/28/26
f 48/74/35 69/25/35 51/37/35
f 2/12/36 35/36/36 41/38/36

